<?xml version="1.0" encoding="utf-8" ?>
<svg xmlns="http://www.w3.org/2000/svg" xmlns:xlink="http://www.w3.org/1999/xlink" width="204" height="276">
	<path fill="#097DC0" d="M27.3629 76.8846C30.3052 77.2173 33.4426 77.0165 36.4051 77.017L53.5773 77.0187C56.9666 77.0193 60.4425 76.8634 63.8175 77.1525C68.7316 77.5733 74.6302 79.1429 77.9364 83.0871C82.1407 88.1027 82.6621 94.2248 82.0995 100.523C81.5985 106.13 79.5113 110.481 74.6585 113.514C73.6229 114.161 72.2159 114.531 71.3331 115.268L71.625 115.596C72.9214 115.783 74.3461 116.486 75.5146 117.068C78.8393 118.723 81.6479 121.883 82.8151 125.414C85.157 132.499 84.6122 141.788 81.2557 148.407C80.6088 149.636 79.5476 150.735 78.5751 151.722C76.5498 153.776 73.8536 155.336 71.0865 156.158C63.9201 158.289 55.6464 157.736 48.2535 157.734L27.4338 157.755C27.4327 154.771 26.8026 151.24 27.5111 148.346C27.7032 147.561 29.9306 146.732 30.6823 146.287C31.0237 145.171 31.1615 144.035 31.2183 142.873L31.2598 132.112L31.2688 112.805L31.2628 96.9258C31.2592 94.6623 31.6513 91.4943 30.9843 89.375C30.4653 87.726 28.8095 87.2545 27.3915 86.5707L27.3629 76.8846ZM46.6991 121.529L46.7279 146.548C52.4869 146.529 60.3703 147.712 65.0655 143.647C67.5634 140.273 68.4601 136.217 67.8477 132.059C67.4153 129.124 66.9708 125.69 64.375 123.793C59.3122 120.094 52.4628 122.093 46.6991 121.529ZM47.297 88.125L46.7799 88.5078L46.775 105.846C46.7766 106.675 46.5109 109.638 46.8866 110.187C51.785 110.213 59.6958 111.286 63.5506 107.634C65.7219 105.377 66.6115 102.41 66.5505 99.3038C66.4853 95.9857 65.9795 92.6956 63.4262 90.3337C62.7429 89.7016 61.7392 89.3444 60.8709 89.0403C56.8855 87.6446 51.5257 88.0843 47.297 88.125Z"/>
	<path fill="#E73F29" d="M99.7243 18.3082L166.726 133.75C170.616 140.329 174.639 147.58 177.296 154.75C181.598 166.356 183.091 178.788 181.544 191.066C181.194 193.838 180.852 196.573 180.13 199.28C174.244 221.35 160.225 240.184 140.332 251.64C121.299 262.6 97.9887 265.322 76.875 259.246C55.9689 253.229 38.6535 239.648 28.0995 220.652C18.8518 204.007 15.5732 181.993 20.8149 163.57C21.753 163.302 31.7714 166.449 33.55 166.878C32.5367 171.507 31.423 176.41 31.5683 181.17C31.7701 183.655 31.5572 186.171 31.7929 188.655C32.7393 198.628 36.181 208.124 41.0986 216.784C49.8517 232.197 65.6582 242.408 82.4755 247.016C99.4906 251.678 118.356 249.055 133.598 240.276C150.15 230.743 162.457 214.451 167.262 196.018C170.051 185.321 169.336 173.635 166.129 163.123C162.913 152.58 156.632 143.06 151.418 133.433L99.8836 44.8578C98.373 48.1363 96.3079 51.376 94.4813 54.5L87.5271 66.5994C85.8191 69.5023 84.2658 73.0283 82.125 75.6039C81.6599 75.7202 81.4752 75.7949 81.0141 75.6242C80.162 75.3087 79.3493 74.615 78.5453 74.172L70.5638 69.7192L99.7243 18.3082Z"/>
</svg>
