<?xml version="1.0" encoding="utf-8" ?>
<svg xmlns="http://www.w3.org/2000/svg" xmlns:xlink="http://www.w3.org/1999/xlink" width="143" height="210">
	<path fill="#1880C3" d="M7.36238 48.175C9.93619 48.4414 12.6727 48.264 15.2641 48.2641L29.92 48.2718C35.9634 48.2827 43.9512 48.0904 49.0577 51.8197C52.4227 54.2772 54.0229 57.9114 54.6495 61.9276C54.8821 63.4188 54.8019 65.0562 54.7616 66.5629C54.6522 70.6477 54.1839 73.9753 51.6886 77.3654C50.6591 78.7641 48.0296 80.9637 46.3269 81.2129C46.0285 81.2566 45.7892 81.3808 45.527 81.5226L45.5179 81.9946C46.9195 82.4672 48.262 82.8066 49.5648 83.5492C52.5937 85.2759 54.7551 88.2959 55.6786 91.625C57.3989 97.8269 56.9067 105.369 53.7149 110.992C53.2953 111.731 52.8059 112.356 52.2168 112.968C49.6159 115.67 46.1792 117.189 42.5505 117.973C38.2013 118.912 33.1709 118.484 28.7349 118.483L7.2969 118.578L7.30442 110.463C7.95936 109.739 9.09946 109.202 9.93717 108.688C10.1817 107.939 10.5027 107.1 10.5435 106.311C10.7142 103.009 10.5357 99.5867 10.5352 96.2704L10.5267 75.698L10.5195 64.6967C10.519 63.0848 10.7639 61.11 10.3901 59.546C10.0331 58.0528 8.67822 57.401 7.47581 56.6489C6.96774 55.4697 7.18925 53.5952 7.24235 52.3324C7.30261 50.899 7.17652 49.6429 7.36238 48.175ZM23.9352 87.0086L24.0325 109.092C28.7112 109.024 36.2751 110.111 39.8081 106.537L39.8533 106.49C42.3093 103.625 42.7508 99.9129 42.4554 96.25C42.2411 93.5934 41.4336 90.9939 39.3306 89.2105C35.6336 86.0754 28.4529 86.9939 23.9352 87.0086ZM23.9333 58.0069L23.9856 77.5449C27.2534 77.1618 30.6152 77.6543 33.828 77.2523C34.6463 77.15 35.4175 76.7789 36.207 76.559C37.0893 76.3133 37.9439 75.6588 38.7115 75.1614C41.0616 72.4525 41.5313 69.0997 41.2328 65.6162C41.0465 63.4425 39.9778 61.2432 38.2795 59.8803C34.8426 57.1219 28.1092 58.0139 23.9333 58.0069Z"/>
	<path fill="#EF5454" d="M68.6435 0L71.6094 0L143 0L143 210L75.9037 210L64.3549 210L-0 210L0 151.636L0 128.281C0.697512 127.527 0.798107 125.509 1.125 124.448C1.37384 124.343 1.74491 124.119 2 124.077C2.49909 123.995 3.95604 124.465 4.51624 124.603L12.3892 126.68C9.40927 139.538 10.4387 152.645 16.0451 164.658C22.692 178.902 34.2002 189.286 48.973 194.653C65.1035 200.514 81.5646 199.569 96.9888 192.196C99.1994 191.139 101.309 189.699 103.337 188.331C114.129 181.053 123.145 169.824 127.46 157.485C130.765 148.035 131.456 137.29 129.168 127.534C126.414 115.79 119.518 104.972 113.65 94.5366L84.5879 44.4572L74.8046 27.9192C73.3171 25.3556 71.7079 22.8938 70.4198 20.2178L62.6638 33.7782L57.3944 42.8532C56.4497 44.504 55.4557 45.9836 54.6779 47.7348L44.709 41.882L68.6435 0ZM71.6094 0L83.9572 21.1513L110.97 66.9255L123.155 88.2645C129.571 99.4484 136.387 110.779 139.84 123.282C142.612 133.321 142.517 145.063 140.033 155.143C135.414 173.88 122.702 190.139 106.246 200.039C99.724 203.964 92.1789 207.009 84.7016 208.471C83.2757 208.75 81.7681 209.085 80.3285 209.251C78.8816 209.417 77.2487 209.406 75.9037 210L143 210L143 0L71.6094 0ZM0 151.636L-0 210L64.3549 210C62.0659 209.08 59.2417 209.21 56.828 208.701C51.2921 207.532 45.9839 205.874 40.794 203.622C23.1553 195.969 10.3977 182.116 3.5911 164.231C2.74783 162.016 1.99104 159.643 1.44066 157.341C0.987037 155.444 0.718347 153.452 0 151.636Z"/>
</svg>
