<?xml version="1.0" encoding="utf-8" ?>
<svg xmlns="http://www.w3.org/2000/svg" xmlns:xlink="http://www.w3.org/1999/xlink" width="690" height="863">
	<path transform="scale(1.34766 1.34844)" d="M165.808 2.01442L344.845 1.96982C362.446 1.98308 369.377 11.12 374.065 26.3796L377.476 37.3159C380.156 46.2776 376.594 44.4068 386.909 44.4031L446.928 44.3697C450.609 44.3512 454.237 44.2021 457.864 44.9623C478.18 49.2205 493.455 67.0029 493.524 87.7182L493.522 580.738C493.52 586.857 493.912 593.279 493.232 599.357C491.142 618.046 479.138 633.33 460.448 637.474C456.114 638.435 451.184 638.019 446.749 638.022L345.553 638.022L64.4627 638.024C60.1409 638.023 55.956 638.151 51.6834 637.443C32.2998 634.233 18.7157 613.791 18.615 595.058L18.5936 99.7413C18.5885 94.0613 18.1455 88.0007 18.8137 82.3768C21.7428 57.7243 42.8592 44.3493 66.1606 44.3574L132.697 44.4226C133.584 43.0626 133.738 40.3677 134.175 38.7397L138.52 24.2405C142.949 10.9257 150.805 2.66465 165.808 2.01442ZM72.2322 120.709L72.3562 552.778L439.355 552.978C439.604 552.609 439.703 552.401 439.932 551.719L439.819 120.656L72.2322 120.709ZM202.773 52.9487C197.023 53.2758 191.27 55.6447 189.833 61.8945L189.652 62.9161C188.642 68.8305 192.948 75.9437 199.173 76.7842C201.859 77.1466 204.763 76.9607 207.481 76.9649L300.894 76.981C303.432 76.9799 306.257 76.6943 308.747 76.8706C322.915 76.261 327.562 61.1086 315.389 54.0698L315.031 53.8557C311.52 51.8303 304.644 53.0251 300.714 53.0247L202.773 52.9487ZM236.867 580.755C215.259 584.492 216.987 612.39 233.404 615.551C237.043 616.252 240.652 616.202 244.342 616.209L257.187 616.22C263.205 616.221 269.408 616.522 275.399 616.041C295.697 612.016 296.242 586.135 278.505 581.492L276.991 581.053C275.224 580.529 273.029 580.618 271.186 580.589L236.867 580.755Z"/>
	<path transform="scale(1.34766 1.34844)" d="M199.027 363.179L400.983 363.085C406.843 363.313 409.442 370.84 404.948 374.54L404.63 374.792C402.131 376.809 395.081 375.907 391.814 375.888L194.257 375.906C192.127 375.921 189.8 376.141 187.701 375.894C182.829 375.323 180.275 363.391 189.747 363.263L199.027 363.179Z"/>
	<path transform="scale(1.34766 1.34844)" d="M189.428 426.351L401.062 426.304C404.434 426.406 406.592 429.008 407.294 432.271L407.369 432.656C408.168 436.55 404.309 439.086 401.018 439.666L216.91 439.491C213.154 439.492 188.416 440.103 187.218 439.292C181.594 435.485 182.288 426.978 189.428 426.351Z"/>
	<path transform="scale(1.34766 1.34844)" d="M190.566 490.118C191.473 490.364 194.688 490.006 195.801 490.006L396.149 489.996C398.249 489.997 400.474 489.854 402.554 490.156C405.033 490.516 407.883 495.111 407.432 497.513L407.367 497.812C406.687 501.094 403.791 502.786 400.713 503.47L211.257 503.383C203.551 503.386 195.549 503.858 187.871 503.385C182.548 503.057 181.23 491.043 190.566 490.118Z"/>
	<path transform="scale(1.34766 1.34844)" d="M119.306 477.912L141.535 477.767C164.995 477.773 166.934 479.46 166.962 500.921L166.953 511.949C166.939 514.345 167.166 517.433 166.146 519.65L165.974 520C163.246 525.753 158.328 528.351 151.99 528.587L128.191 528.649C119.801 528.65 106.692 529.309 105.128 517.287C104.495 512.426 105.035 506.762 105.037 501.8C105.041 490.23 103.973 479.37 119.306 477.912Z"/>
	<path transform="scale(1.34766 1.34844)" d="M149.006 331.864C159.829 331.669 166.869 337.593 166.924 348.687L166.962 368.053C166.954 388.262 162.721 389.431 145.664 389.456L122.764 389.469C108.679 389.674 105.051 382.447 105.032 368.731L105.02 354.375C104.992 351.241 104.251 347.106 104.914 344.077L104.992 343.75C107.783 331.437 118.214 331.925 127.647 331.914L149.006 331.864Z"/>
	<path transform="scale(1.34766 1.34844)" d="M144.474 404.267C158.924 404.066 166.902 403.518 166.982 422.026L167.176 444.844C167.209 446.699 167.406 448.738 167.053 450.56L166.495 453.061C163.345 463.335 153.568 462.321 145.11 462.334L127.687 462.35C108.638 462.579 105.052 458.805 105.033 440.328L104.858 420.946C104.645 406.165 113.584 404.271 124.799 404.257L144.474 404.267Z"/>
	<path transform="scale(1.34766 1.34844)" d="M235.175 159.699L277.258 159.696L277.32 206.986L322.384 206.988L322.561 251.402C318.21 251.983 313.125 251.481 308.707 251.483L277.443 251.486L277.27 289.611C277.27 291.757 278.292 297.237 276.829 298.735L249.32 298.727C244.643 298.723 239.643 299.092 235.026 298.525L234.9 251.504L189.57 251.428C189.284 250.177 189.46 248.648 189.46 247.346L189.553 206.978L235.025 207.115L235.175 159.699Z"/>
</svg>
